<mxfile host="app.diagrams.net" modified="2024-01-23T06:12:25.563Z" agent="Mozilla/5.0 (X11; Linux x86_64) AppleWebKit/537.36 (KHTML, like Gecko) Chrome/120.0.0.0 Safari/537.36" version="22.1.21" etag="M3yCuoYris5BehGsU_0G" type="github">
  <diagram name="第 1 页" id="b_UNug-QM3daBwpBo20H">
    <mxGraphModel>
      <root>
        <mxCell id="0" />
        <mxCell id="1" parent="0" />
      </root>
    </mxGraphModel>
  </diagram>
</mxfile>
